<?xml version="1.0" encoding="UTF-8" standalone="no"?>
<!-- Created with Inkscape (http://www.inkscape.org/) -->

<svg
   width="110.27074mm"
   height="46.25758mm"
   viewBox="0 0 110.27074 46.25758"
   version="1.1"
   id="svg4816"
   inkscape:version="1.4 (86a8ad7, 2024-10-11)"
   sodipodi:docname="ssh_keygen_drawing.svg"
   xmlns:inkscape="http://www.inkscape.org/namespaces/inkscape"
   xmlns:sodipodi="http://sodipodi.sourceforge.net/DTD/sodipodi-0.dtd"
   xmlns="http://www.w3.org/2000/svg"
   xmlns:svg="http://www.w3.org/2000/svg">
  <sodipodi:namedview
     id="namedview4818"
     pagecolor="#ffffff"
     bordercolor="#000000"
     borderopacity="0.25"
     inkscape:showpageshadow="2"
     inkscape:pageopacity="0.0"
     inkscape:pagecheckerboard="0"
     inkscape:deskcolor="#d1d1d1"
     inkscape:document-units="mm"
     showgrid="false"
     inkscape:zoom="2.0409673"
     inkscape:cx="94.073041"
     inkscape:cy="171.7323"
     inkscape:window-width="2880"
     inkscape:window-height="1514"
     inkscape:window-x="-11"
     inkscape:window-y="-11"
     inkscape:window-maximized="1"
     inkscape:current-layer="layer1" />
  <defs
     id="defs4813" />
  <g
     inkscape:label="Layer 1"
     inkscape:groupmode="layer"
     id="layer1"
     transform="translate(-31.031296,-70.737878)">
    <path
       fill-rule="nonzero"
       fill="#232f3d"
       fill-opacity="1"
       d="m 97.893348,106.85061 c -0.367556,0 -0.666253,-0.29868 -0.666253,-0.66594 0,-0.36755 0.298697,-0.66621 0.666253,-0.66621 0.36757,0 0.666249,0.29866 0.666249,0.66621 0,0.36726 -0.298679,0.66594 -0.666249,0.66594 z m 0,-1.95833 c -0.712569,0 -1.292398,0.57983 -1.292398,1.29239 0,0.71229 0.579829,1.29213 1.292398,1.29213 0.712565,0 1.292394,-0.57984 1.292394,-1.29213 0,-0.71256 -0.579829,-1.29239 -1.292394,-1.29239 z m 9.928182,1.95833 h -5.88533 c -0.13622,0 -0.25706,0.0883 -0.29838,0.21855 -0.38288,1.20817 -1.49403,2.01966 -2.765161,2.01966 -1.601403,0 -2.904462,-1.3027 -2.904462,-2.90415 0,-1.6014 1.303059,-2.90442 2.904462,-2.90442 1.271131,0 2.382281,0.81147 2.765161,2.01966 0.0413,0.13027 0.16216,0.21855 0.29838,0.21855 h 0.9931 c 0.0833,0 0.16249,-0.0329 0.22135,-0.0918 l 0.61801,-0.61768 0.61803,0.61768 c 0.0588,0.0589 0.13838,0.0918 0.22132,0.0918 h 0.55952 c 0.0833,0 0.1628,-0.0329 0.22135,-0.0918 l 0.61799,-0.61768 0.61806,0.61768 c 0.0585,0.0589 0.13804,0.0918 0.22135,0.0918 h 0.72131 l 0.79775,0.69785 z m 1.18938,-0.90165 -1.11926,-0.97934 c -0.057,-0.0498 -0.13027,-0.0773 -0.20632,-0.0773 h -0.70947 l -0.74763,-0.74764 c -0.12239,-0.12211 -0.32026,-0.12211 -0.44269,0 l -0.74765,0.74764 h -0.30024 l -0.74764,-0.74764 c -0.12241,-0.12211 -0.32059,-0.12211 -0.4427,0 l -0.74763,0.74764 h -0.64214 c -0.52536,-1.34813 -1.81745,-2.23824 -3.284881,-2.23824 -1.947062,0 -3.53061,1.58361 -3.53061,3.53063 0,1.94676 1.583548,3.53036 3.53061,3.53036 1.467431,0 2.759521,-0.89013 3.284881,-2.23823 h 5.80798 c 0.0914,0 0.17815,-0.0401 0.23765,-0.10957 l 0.83904,-0.97902 c 0.1121,-0.13025 0.098,-0.32626 -0.0313,-0.43925 z m 0,0"
       id="path460"
       style="stroke-width:0.00472214" />
    <g
       fill="#232f3d"
       fill-opacity="1"
       id="g468"
       transform="matrix(0.00472217,0,0,0.00472217,31.061891,70.768473)">
      <g
         id="use462"
         transform="translate(14411.646,9599.9521)">
        <path
           d="M 59.765625,0 V -644.23437 H 138.875 v 367.375 L 326.07812,-466.70312 H 428.46875 L 250.04687,-293.5625 446.48437,0 h -97.5625 l -154.25,-238.625 -55.79687,53.60938 V 0 Z m 0,0"
           id="path3386" />
      </g>
      <g
         id="use464"
         transform="translate(14861.644,9599.9521)">
        <path
           d="m 378.8125,-150.29687 81.73437,10.10937 c -12.88671,47.75 -36.76171,84.8125 -71.625,111.1875 -34.86718,26.367187 -79.39843,39.546875 -133.59375,39.546875 -68.26171,0 -122.39062,-21.019531 -162.39062,-63.0625 C 52.945313,-94.554688 32.953125,-153.51562 32.953125,-229.39062 c 0,-78.51954 20.210938,-139.45704 60.640625,-182.8125 40.4375,-43.36329 92.87891,-65.04688 157.32812,-65.04688 62.40625,0 113.38282,21.24219 152.9375,63.71875 39.55079,42.48047 59.32813,102.24609 59.32813,179.29688 0,4.6875 -0.14844,11.71875 -0.4375,21.09375 H 114.70313 c 2.92578,51.27343 17.42578,90.53124 43.49999,117.781245 26.07032,27.242187 58.59375,40.859375 97.5625,40.859375 29,0 53.75391,-7.613281 74.26563,-22.84375 20.50781,-15.238281 36.76953,-39.55469 48.78125,-72.95312 z m -259.71875,-127.875 H 379.6875 c -3.51172,-39.25782 -13.46875,-68.70313 -29.875,-88.32813 -25.19922,-30.46875 -57.86719,-45.70312 -98,-45.70312 -36.33594,0 -66.88281,12.15625 -91.64063,36.46875 -24.75,24.3125 -38.44531,56.83593 -41.07812,97.5625 z m 0,0"
           id="path3390" />
      </g>
      <g
         id="use466"
         transform="translate(15362.179,9599.9521)">
        <path
           d="m 55.8125,179.73437 -8.796875,-74.26562 c 17.289063,4.6875 32.378906,7.03125 45.265625,7.03125 17.58203,0 31.64453,-2.93359 42.1875,-8.79687 10.55078,-5.855474 19.19531,-14.054692 25.9375,-24.593755 C 165.38281,71.191406 173.44141,51.5625 184.57812,20.21875 186.03516,15.820313 188.37891,9.375 191.60937,0.875 L 14.5,-466.70312 h 85.25 l 97.125,270.26562 c 12.59375,34.28125 23.875,70.32031 33.84375,108.109375 9.08203,-36.332035 19.92187,-71.781245 32.51562,-106.343745 l 99.75,-272.03125 h 79.10938 L 264.54687,7.90625 c -19.04296,51.269531 -33.83593,86.570313 -44.375,105.90625 -14.0625,26.08203 -30.17968,45.20312 -48.34375,57.35937 -18.16796,12.15625 -39.85156,18.23438 -65.04687,18.23438 -15.230469,0 -32.21875,-3.22656 -50.96875,-9.67188 z m 0,0"
           id="path3394" />
      </g>
    </g>
    <path
       style="color:#000000;fill:#000000;stroke-width:0.00973384;stroke-miterlimit:10;-inkscape-stroke:none"
       d="m 80.613771,77.466598 v 12.395961 h -6.698474 v 0.769502 h 7.467956 V 78.236746 l 11.703131,0.01 7.06e-4,-0.769503 z"
       id="path470" />
    <g
       id="path472"
       transform="matrix(0.0097338,0,0,0.0097338,30.928977,70.635559)">
      <path
         style="color:#000000;fill:#000000;stroke-width:79.0542;stroke-miterlimit:10;-inkscape-stroke:none"
         d="M 6576.7806,742.56517 6321.9792,869.69773 6385.7605,742.406 6322.1971,615.00432 Z m 0,0"
         id="path4078" />
      <path
         style="color:#000000;fill:#000000;stroke-miterlimit:10;-inkscape-stroke:none"
         d="m 6233.8906,526.54687 107.6778,215.82032 -108.0508,215.64258 431.6484,-215.36915 -70.6777,-35.41406 z m 176.6133,176.91602 77.8906,39.02734 -77.9531,38.89454 19.5117,-38.94141 z"
         id="path4080" />
    </g>
    <path
       style="color:#000000;fill:#000000;stroke-width:0.00973384;stroke-miterlimit:10;-inkscape-stroke:none"
       d="m 73.915297,89.862559 v 0.769502 h 6.698474 v 15.937209 h 12.472938 v -0.76951 H 81.383253 V 89.862559 Z"
       id="path474" />
    <g
       id="path476"
       transform="matrix(0.0097338,0,0,0.0097338,30.928977,70.635559)">
      <path
         style="color:#000000;fill:#000000;stroke-width:79.0542;stroke-miterlimit:10;-inkscape-stroke:none"
         d="m 6576.7806,3652.1136 -254.6915,127.3467 63.6714,-127.3467 -63.6714,-127.3448 z m 0,0"
         id="path4088" />
      <path
         style="color:#000000;fill:#000000;stroke-miterlimit:10;-inkscape-stroke:none"
         d="m 6233.7051,3436.3848 107.8633,215.7285 -107.8633,215.7324 431.4609,-215.7324 -70.709,-35.3535 z m 176.7676,176.7675 77.9238,38.961 -77.9238,38.9609 19.4804,-38.9609 z"
         id="path4090" />
    </g>
    <path
       style="color:#000000;fill:#000000;stroke-width:0.00973384;-inkscape-stroke:none"
       d="m 31.031296,84.550145 v 0.384751 11.00956 H 74.300051 V 84.550145 Z m 0.769503,0.769503 h 41.729748 v 9.855305 H 31.800799 Z"
       id="path478" />
    <g
       fill="#232f3d"
       fill-opacity="1"
       id="g522"
       transform="matrix(0.00472217,0,0,0.00472217,31.061891,70.768473)">
      <g
         id="use502"
         transform="translate(17994.051,1649.9917)">
        <path
           d="m 69.4375,0 v -644.23437 h 243.01562 c 42.76954,0 75.4375,2.04687 98,6.14062 31.63282,5.28125 58.14454,15.32031 79.53125,30.10938 21.39454,14.79296 38.60938,35.52343 51.64063,62.1875 13.03906,26.65625 19.5625,55.95312 19.5625,87.89062 0,54.78125 -17.43359,101.14063 -52.29688,139.07813 -34.86718,37.9375 -97.85546,56.90625 -188.96875,56.90625 H 154.6875 V 0 Z m 85.25,-337.9375 h 166.54687 c 55.08204,0 94.19532,-10.25391 117.34375,-30.76562 23.14454,-20.50782 34.71875,-49.36719 34.71875,-86.57813 0,-26.94531 -6.8125,-50.01562 -20.4375,-69.20312 -13.625,-19.1875 -31.57031,-31.85938 -53.82812,-38.01563 -14.36719,-3.8125 -40.88281,-5.71875 -79.54688,-5.71875 H 154.6875 Z m 0,0"
           id="path3438" />
      </g>
      <g
         id="use504"
         transform="translate(18594.34,1649.9917)">
        <path
           d="m 365.1875,0 v -68.5625 c -36.33594,52.742187 -85.69922,79.109375 -148.09375,79.109375 -27.54297,0 -53.25,-5.273437 -77.125,-15.8125 -23.875,-10.550781 -41.601562,-23.8125 -53.171875,-39.78125 C 75.222656,-61.015625 67.09375,-80.570313 62.40625,-103.71875 59.175781,-119.23828 57.5625,-143.84766 57.5625,-177.54687 v -289.15625 h 79.10937 v 258.84375 c 0,41.30468 1.60938,69.13671 4.82813,83.49999 4.97656,20.79297 15.52344,37.125005 31.64062,49.000005 16.11329,11.867187 36.03516,17.796875 59.76563,17.796875 23.72656,0 45.99219,-6.078125 66.79687,-18.234375 20.80079,-12.164063 35.52344,-28.722655 44.17188,-49.671875 8.64453,-20.94531 12.96875,-51.34375 12.96875,-91.1875 V -466.70312 H 435.9375 V 0 Z m 0,0"
           id="path3442" />
      </g>
      <g
         id="use506"
         transform="translate(19094.875,1649.9917)">
        <path
           d="M 132.28125,0 H 58.890625 v -644.23437 h 79.093745 v 229.82812 C 171.39062,-456.30078 214.01953,-477.25 265.875,-477.25 c 28.70703,0 55.87891,5.78906 81.51562,17.35938 25.63282,11.57421 46.72657,27.83593 63.28125,48.78125 16.55079,20.94921 29.51563,46.21875 38.89063,75.8125 9.375,29.58593 14.0625,61.22656 14.0625,94.92187 0,79.98047 -19.77734,141.796875 -59.32813,185.453125 -39.55468,43.648437 -87.01171,65.46875 -142.375,65.46875 -55.08593,0 -98.29687,-23 -129.64062,-69 z m -0.89063,-236.85937 c 0,55.94921 7.61719,96.375 22.85938,121.28124 24.90625,40.718755 58.59766,61.07813 101.07812,61.07813 34.5625,0 64.44141,-15.007813 89.64063,-45.03125 25.19531,-30.03125 37.79687,-74.78516 37.79687,-134.26562 0,-60.9375 -12.08984,-105.90625 -36.26562,-134.90625 -24.16797,-29 -53.38672,-43.5 -87.65625,-43.5 -34.57422,0 -64.46094,15.01562 -89.65625,45.04687 -25.19922,30.02344 -37.79688,73.45313 -37.79688,130.29688 z m 0,0"
           id="path3446" />
      </g>
      <g
         id="use508"
         transform="translate(19595.41,1649.9917)">
        <path
           d="m 57.5625,0 v -644.23437 h 79.10937 V 0 Z m 0,0"
           id="path3450" />
      </g>
      <g
         id="use510"
         transform="translate(19795.359,1649.9917)">
        <path
           d="m 59.765625,-553.26562 v -90.96875 H 138.875 v 90.96875 z M 59.765625,0 V -466.70312 H 138.875 V 0 Z m 0,0"
           id="path3454" />
      </g>
      <g
         id="use512"
         transform="translate(19995.311,1649.9917)">
        <path
           d="m 363.875,-170.95312 77.78125,10.10937 c -8.5,53.61719 -30.25781,95.585937 -65.26563,125.90625 -35.01171,30.324219 -78.00781,45.484375 -128.98437,45.484375 -63.86719,0 -115.21094,-20.875 -154.03125,-62.625 -38.8125,-41.75 -58.21875,-101.585935 -58.21875,-179.515625 0,-50.38281 8.347656,-94.47266 25.046875,-132.26562 16.695313,-37.80079 42.109375,-66.14844 76.234375,-85.04688 34.13281,-18.89453 71.27344,-28.34375 111.42187,-28.34375 50.67579,0 92.12891,12.82031 124.35938,38.45313 32.22656,25.63671 52.88281,62.03906 61.96875,109.20312 l -76.90625,11.875 c -7.32422,-31.35156 -20.28906,-54.9375 -38.89063,-70.75 -18.60546,-15.82031 -41.09375,-23.73437 -67.46875,-23.73437 -39.84375,0 -72.21875,14.28125 -97.125,42.84375 -24.89843,28.5625 -37.34374,73.75 -37.34374,135.5625 0,62.69921 12.00781,108.25781 36.03124,136.67187 24.03125,28.417969 55.37891,42.625 94.04688,42.625 31.05078,0 56.97656,-9.519531 77.78125,-28.5625 20.80078,-19.03906 33.98828,-48.33594 39.5625,-87.89062 z m 0,0"
           id="path3458" />
      </g>
      <g
         id="use514"
         transform="translate(20445.307,1649.9917)" />
      <g
         id="use516"
         transform="translate(20695.355,1649.9917)">
        <path
           d="M 59.765625,0 V -644.23437 H 138.875 v 367.375 L 326.07812,-466.70312 H 428.46875 L 250.04687,-293.5625 446.48437,0 h -97.5625 l -154.25,-238.625 -55.79687,53.60938 V 0 Z m 0,0"
           id="path3464" />
      </g>
      <g
         id="use518"
         transform="translate(21145.354,1649.9917)">
        <path
           d="m 378.8125,-150.29687 81.73437,10.10937 c -12.88671,47.75 -36.76171,84.8125 -71.625,111.1875 -34.86718,26.367187 -79.39843,39.546875 -133.59375,39.546875 -68.26171,0 -122.39062,-21.019531 -162.39062,-63.0625 C 52.945313,-94.554688 32.953125,-153.51562 32.953125,-229.39062 c 0,-78.51954 20.210938,-139.45704 60.640625,-182.8125 40.4375,-43.36329 92.87891,-65.04688 157.32812,-65.04688 62.40625,0 113.38282,21.24219 152.9375,63.71875 39.55079,42.48047 59.32813,102.24609 59.32813,179.29688 0,4.6875 -0.14844,11.71875 -0.4375,21.09375 H 114.70313 c 2.92578,51.27343 17.42578,90.53124 43.49999,117.781245 26.07032,27.242187 58.59375,40.859375 97.5625,40.859375 29,0 53.75391,-7.613281 74.26563,-22.84375 20.50781,-15.238281 36.76953,-39.55469 48.78125,-72.95312 z m -259.71875,-127.875 H 379.6875 c -3.51172,-39.25782 -13.46875,-68.70313 -29.875,-88.32813 -25.19922,-30.46875 -57.86719,-45.70312 -98,-45.70312 -36.33594,0 -66.88281,12.15625 -91.64063,36.46875 -24.75,24.3125 -38.44531,56.83593 -41.07812,97.5625 z m 0,0"
           id="path3468" />
      </g>
      <g
         id="use520"
         transform="translate(21645.887,1649.9917)">
        <path
           d="m 55.8125,179.73437 -8.796875,-74.26562 c 17.289063,4.6875 32.378906,7.03125 45.265625,7.03125 17.58203,0 31.64453,-2.93359 42.1875,-8.79687 10.55078,-5.855474 19.19531,-14.054692 25.9375,-24.593755 C 165.38281,71.191406 173.44141,51.5625 184.57812,20.21875 186.03516,15.820313 188.37891,9.375 191.60937,0.875 L 14.5,-466.70312 h 85.25 l 97.125,270.26562 c 12.59375,34.28125 23.875,70.32031 33.84375,108.109375 9.08203,-36.332035 19.92187,-71.781245 32.51562,-106.343745 l 99.75,-272.03125 h 79.10938 L 264.54687,7.90625 c -19.04296,51.269531 -33.83593,86.570313 -44.375,105.90625 -14.0625,26.08203 -30.17968,45.20312 -48.34375,57.35937 -18.16796,12.15625 -39.85156,18.23438 -65.04687,18.23438 -15.230469,0 -32.21875,-3.22656 -50.96875,-9.67188 z m 0,0"
           id="path3472" />
      </g>
    </g>
    <g
       fill="#232f3d"
       fill-opacity="1"
       id="g526"
       transform="matrix(0.00472217,0,0,0.00472217,31.061891,70.768473)">
      <g
         id="use524"
         transform="translate(22029.088,1649.9917)">
        <path
           d="M 79.984375,0 V -90.09375 H 170.0625 V 0 c 0,33.101563 -5.85938,59.835938 -17.57813,80.203125 C 140.76562,100.56641 122.16406,116.3125 96.6875,127.4375 L 74.703125,93.609375 C 91.398438,86.285156 103.70313,75.515625 111.60938,61.296875 119.52344,47.085938 123.92578,26.65625 124.8125,0 Z m 0,0"
           id="path3476" />
      </g>
    </g>
    <g
       fill="#232f3d"
       fill-opacity="1"
       id="g556"
       transform="matrix(0.00472217,0,0,0.00472217,31.061891,70.768473)">
      <g
         id="use528"
         transform="translate(17310.85,2774.9861)">
        <path
           d="m 363.875,-170.95312 77.78125,10.10937 c -8.5,53.61719 -30.25781,95.585937 -65.26563,125.90625 -35.01171,30.324219 -78.00781,45.484375 -128.98437,45.484375 -63.86719,0 -115.21094,-20.875 -154.03125,-62.625 -38.8125,-41.75 -58.21875,-101.585935 -58.21875,-179.515625 0,-50.38281 8.347656,-94.47266 25.046875,-132.26562 16.695313,-37.80079 42.109375,-66.14844 76.234375,-85.04688 34.13281,-18.89453 71.27344,-28.34375 111.42187,-28.34375 50.67579,0 92.12891,12.82031 124.35938,38.45313 32.22656,25.63671 52.88281,62.03906 61.96875,109.20312 l -76.90625,11.875 c -7.32422,-31.35156 -20.28906,-54.9375 -38.89063,-70.75 -18.60546,-15.82031 -41.09375,-23.73437 -67.46875,-23.73437 -39.84375,0 -72.21875,14.28125 -97.125,42.84375 -24.89843,28.5625 -37.34374,73.75 -37.34374,135.5625 0,62.69921 12.00781,108.25781 36.03124,136.67187 24.03125,28.417969 55.37891,42.625 94.04688,42.625 31.05078,0 56.97656,-9.519531 77.78125,-28.5625 20.80078,-19.03906 33.98828,-48.33594 39.5625,-87.89062 z m 0,0"
           id="path3480" />
      </g>
      <g
         id="use530"
         transform="translate(17760.848,2774.9861)">
        <path
           d="m 29.890625,-233.34375 c 0,-86.42578 24.019531,-150.44141 72.062505,-192.04687 40.13281,-34.57032 89.06249,-51.85938 146.78124,-51.85938 64.15625,0 116.59375,21.02344 157.3125,63.0625 40.72657,42.04297 61.09375,100.125 61.09375,174.25 0,60.05469 -9.01171,107.29297 -27.03125,141.71875 -18.01171,34.429687 -44.23046,61.164062 -78.65625,80.203125 -34.42968,19.039063 -72,28.5625 -112.71875,28.5625 -65.33593,0 -118.14062,-20.945313 -158.42187,-62.84375 C 50.03125,-94.191406 29.890625,-154.53906 29.890625,-233.34375 Z m 81.296875,0 c 0,59.76172 13.03516,104.51172 39.10937,134.25 26.07032,29.730469 58.88282,44.59375 98.4375,44.59375 39.25782,0 71.92579,-14.9375 98,-44.8125 26.07032,-29.88281 39.10938,-75.44141 39.10938,-136.67187 0,-57.71875 -13.11719,-101.44141 -39.34375,-131.17188 -26.21875,-29.73828 -58.80859,-44.60937 -97.76563,-44.60937 -39.55468,0 -72.36718,14.79687 -98.4375,44.39062 -26.07421,29.58594 -39.10937,74.26172 -39.10937,134.03125 z m 0,0"
           id="path3484" />
      </g>
      <g
         id="use532"
         transform="translate(18261.383,2774.9861)">
        <path
           d="m 59.328125,178.85937 v -645.56249 h 72.062495 v 60.64062 c 17,-23.72656 36.19141,-41.52344 57.57813,-53.39062 21.38281,-11.86329 47.3125,-17.79688 77.78125,-17.79688 39.84375,0 75,10.25781 105.46875,30.76563 30.46875,20.51171 53.46094,49.44531 68.98437,86.79687 15.53125,37.35547 23.29688,78.29688 23.29688,122.82813 0,47.75 -8.57031,90.74609 -25.70313,128.98437 -17.13671,38.230469 -42.03906,67.527344 -74.70312,87.890625 -32.66797,20.351563 -67.02344,30.53125 -103.0625,30.53125 -26.36719,0 -50.02344,-5.570312 -70.96875,-16.703125 -20.94922,-11.132813 -38.16406,-25.195313 -51.64063,-42.1875 v 227.20312 z m 71.624995,-409.57812 c 0,60.0625 12.15625,104.44922 36.46875,133.15625 24.32032,28.710937 53.76954,43.0625 88.34375,43.0625 35.15625,0 65.25391,-14.863281 90.29688,-44.59375 25.05078,-29.73828 37.57812,-75.8125 37.57812,-138.21875 0,-59.46875 -12.23437,-103.99219 -36.70312,-133.57812 -24.46094,-29.59375 -53.67969,-44.39063 -87.65625,-44.39063 -33.69922,0 -63.51172,15.75 -89.4375,47.25 -25.92969,31.49219 -38.89063,77.26172 -38.89063,137.3125 z m 0,0"
           id="path3488" />
      </g>
      <g
         id="use534"
         transform="translate(18761.918,2774.9861)">
        <path
           d="m 55.8125,179.73437 -8.796875,-74.26562 c 17.289063,4.6875 32.378906,7.03125 45.265625,7.03125 17.58203,0 31.64453,-2.93359 42.1875,-8.79687 10.55078,-5.855474 19.19531,-14.054692 25.9375,-24.593755 C 165.38281,71.191406 173.44141,51.5625 184.57812,20.21875 186.03516,15.820313 188.37891,9.375 191.60937,0.875 L 14.5,-466.70312 h 85.25 l 97.125,270.26562 c 12.59375,34.28125 23.875,70.32031 33.84375,108.109375 9.08203,-36.332035 19.92187,-71.781245 32.51562,-106.343745 l 99.75,-272.03125 h 79.10938 L 264.54687,7.90625 c -19.04296,51.269531 -33.83593,86.570313 -44.375,105.90625 -14.0625,26.08203 -30.17968,45.20312 -48.34375,57.35937 -18.16796,12.15625 -39.85156,18.23438 -65.04687,18.23438 -15.230469,0 -32.21875,-3.22656 -50.96875,-9.67188 z m 0,0"
           id="path3492" />
      </g>
      <g
         id="use536"
         transform="translate(19211.914,2774.9861)" />
      <g
         id="use538"
         transform="translate(19461.963,2774.9861)">
        <path
           d="m 232.03125,-70.75 11.42187,69.875 c -22.26171,4.6875 -42.18359,7.03125 -59.76562,7.03125 -28.71094,0 -50.97656,-4.542969 -66.79687,-13.625 -15.8125,-9.082031 -26.945317,-21.019531 -33.39063,-35.8125 -6.449219,-14.800781 -9.671875,-45.929688 -9.671875,-93.39062 v -268.5 h -58 v -61.53125 h 58 v -115.57813 l 78.656245,-47.45312 v 163.03125 h 79.54688 v 61.53125 h -79.54688 v 272.89062 c 0,22.5625 1.39063,37.070312 4.17188,43.515625 2.78906,6.4375 7.33203,11.5625 13.625,15.375 6.30078,3.8125 15.3125,5.71875 27.03125,5.71875 8.78906,0 20.36328,-1.023438 34.71875,-3.078125 z m 0,0"
           id="path3498" />
      </g>
      <g
         id="use540"
         transform="translate(19712.01,2774.9861)">
        <path
           d="m 29.890625,-233.34375 c 0,-86.42578 24.019531,-150.44141 72.062505,-192.04687 40.13281,-34.57032 89.06249,-51.85938 146.78124,-51.85938 64.15625,0 116.59375,21.02344 157.3125,63.0625 40.72657,42.04297 61.09375,100.125 61.09375,174.25 0,60.05469 -9.01171,107.29297 -27.03125,141.71875 -18.01171,34.429687 -44.23046,61.164062 -78.65625,80.203125 -34.42968,19.039063 -72,28.5625 -112.71875,28.5625 -65.33593,0 -118.14062,-20.945313 -158.42187,-62.84375 C 50.03125,-94.191406 29.890625,-154.53906 29.890625,-233.34375 Z m 81.296875,0 c 0,59.76172 13.03516,104.51172 39.10937,134.25 26.07032,29.730469 58.88282,44.59375 98.4375,44.59375 39.25782,0 71.92579,-14.9375 98,-44.8125 26.07032,-29.88281 39.10938,-75.44141 39.10938,-136.67187 0,-57.71875 -13.11719,-101.44141 -39.34375,-131.17188 -26.21875,-29.73828 -58.80859,-44.60937 -97.76563,-44.60937 -39.55468,0 -72.36718,14.79687 -98.4375,44.39062 -26.07421,29.58594 -39.10937,74.26172 -39.10937,134.03125 z m 0,0"
           id="path3502" />
      </g>
      <g
         id="use542"
         transform="translate(20212.545,2774.9861)" />
      <g
         id="use544"
         transform="translate(20462.592,2774.9861)">
        <path
           d="m 27.6875,-139.3125 78.21875,-12.29687 c 4.39453,31.34374 16.625,55.367182 36.6875,72.062495 20.07031,16.699219 48.12891,25.046875 84.17187,25.046875 36.32032,0 63.26954,-7.394531 80.84375,-22.1875 17.58204,-14.789063 26.375,-32.14844 26.375,-52.07812 0,-17.86329 -7.76562,-31.92579 -23.29687,-42.1875 -10.83594,-7.03125 -37.78906,-15.96094 -80.85938,-26.79688 -58,-14.65625 -98.21093,-27.32812 -120.62499,-38.01562 -22.406255,-10.69532 -39.398442,-25.49219 -50.968755,-44.39063 -11.574219,-18.89453 -17.359375,-39.76953 -17.359375,-62.625 0,-20.78906 4.757813,-40.05078 14.28125,-57.78125 9.519531,-17.72656 22.484375,-32.45312 38.890625,-44.17187 12.300785,-9.07032 29.070315,-16.75782 50.312495,-23.0625 21.23829,-6.30079 44.01954,-9.45313 68.34375,-9.45313 36.61329,0 68.76563,5.27734 96.45313,15.82813 27.6875,10.54296 48.11719,24.82421 61.29687,42.84375 13.1875,18.02343 22.26954,42.11718 27.25,72.28125 L 320.35937,-335.75 c -3.51171,-24.01953 -13.69531,-42.76562 -30.54687,-56.23437 -16.84375,-13.47657 -40.64844,-20.21875 -71.40625,-20.21875 -36.32422,0 -62.25,6.00781 -77.78125,18.01562 -15.53125,12.01172 -23.29687,26.07422 -23.29687,42.1875 0,10.25 3.22265,19.48047 9.67187,27.6875 6.44531,8.49219 16.55469,15.52344 30.32812,21.09375 7.90625,2.92969 31.19532,9.66406 69.875,20.20313 55.95704,14.94921 94.99219,27.18359 117.10938,36.70312 22.11328,9.52344 39.46875,23.36719 52.0625,41.53125 12.60156,18.15625 18.90625,40.71484 18.90625,67.67188 0,26.36718 -7.69531,51.195307 -23.07813,74.48437 -15.375,23.292969 -37.57031,41.3125 -66.57812,54.0625 -29,12.738281 -61.80859,19.109375 -98.42188,19.109375 C 166.55469,10.546875 120.33594,-2.050781 88.546875,-27.25 56.765625,-52.445313 36.476563,-89.800781 27.6875,-139.3125 Z m 0,0"
           id="path3508" />
      </g>
      <g
         id="use546"
         transform="translate(20912.59,2774.9861)">
        <path
           d="m 378.8125,-150.29687 81.73437,10.10937 c -12.88671,47.75 -36.76171,84.8125 -71.625,111.1875 -34.86718,26.367187 -79.39843,39.546875 -133.59375,39.546875 -68.26171,0 -122.39062,-21.019531 -162.39062,-63.0625 C 52.945313,-94.554688 32.953125,-153.51562 32.953125,-229.39062 c 0,-78.51954 20.210938,-139.45704 60.640625,-182.8125 40.4375,-43.36329 92.87891,-65.04688 157.32812,-65.04688 62.40625,0 113.38282,21.24219 152.9375,63.71875 39.55079,42.48047 59.32813,102.24609 59.32813,179.29688 0,4.6875 -0.14844,11.71875 -0.4375,21.09375 H 114.70313 c 2.92578,51.27343 17.42578,90.53124 43.49999,117.781245 26.07032,27.242187 58.59375,40.859375 97.5625,40.859375 29,0 53.75391,-7.613281 74.26563,-22.84375 20.50781,-15.238281 36.76953,-39.55469 48.78125,-72.95312 z m -259.71875,-127.875 H 379.6875 c -3.51172,-39.25782 -13.46875,-68.70313 -29.875,-88.32813 -25.19922,-30.46875 -57.86719,-45.70312 -98,-45.70312 -36.33594,0 -66.88281,12.15625 -91.64063,36.46875 -24.75,24.3125 -38.44531,56.83593 -41.07812,97.5625 z m 0,0"
           id="path3512" />
      </g>
      <g
         id="use548"
         transform="translate(21413.125,2774.9861)">
        <path
           d="m 58.453125,0 v -466.70312 h 71.187495 v 70.75 c 18.16407,-33.10157 34.9375,-54.92579 50.3125,-65.46875 15.38282,-10.55079 32.30469,-15.82813 50.76563,-15.82813 26.65625,0 53.75391,8.49609 81.29687,25.48438 l -27.25,73.39062 c -19.33593,-11.42578 -38.66796,-17.14062 -58,-17.14062 -17.29296,0 -32.82421,5.20312 -46.59375,15.60937 -13.77343,10.39844 -23.58593,24.82422 -29.4375,43.28125 -8.79296,28.125 -13.1875,58.88672 -13.1875,92.28125 V 0 Z m 0,0"
           id="path3516" />
      </g>
      <g
         id="use550"
         transform="translate(21712.83,2774.9861)">
        <path
           d="M 188.96875,0 11.421875,-466.70312 h 83.5 l 100.203125,279.5 c 10.83203,30.17968 20.78906,61.52343 29.875,94.031245 7.03125,-24.601565 16.84375,-54.191405 29.4375,-88.765625 l 103.71875,-284.76562 h 81.29687 L 262.79687,0 Z m 0,0"
           id="path3520" />
      </g>
      <g
         id="use552"
         transform="translate(22162.828,2774.9861)">
        <path
           d="m 378.8125,-150.29687 81.73437,10.10937 c -12.88671,47.75 -36.76171,84.8125 -71.625,111.1875 -34.86718,26.367187 -79.39843,39.546875 -133.59375,39.546875 -68.26171,0 -122.39062,-21.019531 -162.39062,-63.0625 C 52.945313,-94.554688 32.953125,-153.51562 32.953125,-229.39062 c 0,-78.51954 20.210938,-139.45704 60.640625,-182.8125 40.4375,-43.36329 92.87891,-65.04688 157.32812,-65.04688 62.40625,0 113.38282,21.24219 152.9375,63.71875 39.55079,42.48047 59.32813,102.24609 59.32813,179.29688 0,4.6875 -0.14844,11.71875 -0.4375,21.09375 H 114.70313 c 2.92578,51.27343 17.42578,90.53124 43.49999,117.781245 26.07032,27.242187 58.59375,40.859375 97.5625,40.859375 29,0 53.75391,-7.613281 74.26563,-22.84375 20.50781,-15.238281 36.76953,-39.55469 48.78125,-72.95312 z m -259.71875,-127.875 H 379.6875 c -3.51172,-39.25782 -13.46875,-68.70313 -29.875,-88.32813 -25.19922,-30.46875 -57.86719,-45.70312 -98,-45.70312 -36.33594,0 -66.88281,12.15625 -91.64063,36.46875 -24.75,24.3125 -38.44531,56.83593 -41.07812,97.5625 z m 0,0"
           id="path3524" />
      </g>
      <g
         id="use554"
         transform="translate(22663.363,2774.9861)">
        <path
           d="m 58.453125,0 v -466.70312 h 71.187495 v 70.75 c 18.16407,-33.10157 34.9375,-54.92579 50.3125,-65.46875 15.38282,-10.55079 32.30469,-15.82813 50.76563,-15.82813 26.65625,0 53.75391,8.49609 81.29687,25.48438 l -27.25,73.39062 c -19.33593,-11.42578 -38.66796,-17.14062 -58,-17.14062 -17.29296,0 -32.82421,5.20312 -46.59375,15.60937 -13.77343,10.39844 -23.58593,24.82422 -29.4375,43.28125 -8.79296,28.125 -13.1875,58.88672 -13.1875,92.28125 V 0 Z m 0,0"
           id="path3528" />
      </g>
    </g>
    <g
       fill="#232f3d"
       fill-opacity="1"
       id="g580"
       transform="matrix(0.00472217,0,0,0.00472217,31.061891,70.768473)">
      <g
         id="use558"
         transform="translate(17819.441,7274.9634)">
        <path
           d="m 69.4375,0 v -644.23437 h 243.01562 c 42.76954,0 75.4375,2.04687 98,6.14062 31.63282,5.28125 58.14454,15.32031 79.53125,30.10938 21.39454,14.79296 38.60938,35.52343 51.64063,62.1875 13.03906,26.65625 19.5625,55.95312 19.5625,87.89062 0,54.78125 -17.43359,101.14063 -52.29688,139.07813 -34.86718,37.9375 -97.85546,56.90625 -188.96875,56.90625 H 154.6875 V 0 Z m 85.25,-337.9375 h 166.54687 c 55.08204,0 94.19532,-10.25391 117.34375,-30.76562 23.14454,-20.50782 34.71875,-49.36719 34.71875,-86.57813 0,-26.94531 -6.8125,-50.01562 -20.4375,-69.20312 -13.625,-19.1875 -31.57031,-31.85938 -53.82812,-38.01563 -14.36719,-3.8125 -40.88281,-5.71875 -79.54688,-5.71875 H 154.6875 Z m 0,0"
           id="path3532" />
      </g>
      <g
         id="use560"
         transform="translate(18419.732,7274.9634)">
        <path
           d="m 58.453125,0 v -466.70312 h 71.187495 v 70.75 c 18.16407,-33.10157 34.9375,-54.92579 50.3125,-65.46875 15.38282,-10.55079 32.30469,-15.82813 50.76563,-15.82813 26.65625,0 53.75391,8.49609 81.29687,25.48438 l -27.25,73.39062 c -19.33593,-11.42578 -38.66796,-17.14062 -58,-17.14062 -17.29296,0 -32.82421,5.20312 -46.59375,15.60937 -13.77343,10.39844 -23.58593,24.82422 -29.4375,43.28125 -8.79296,28.125 -13.1875,58.88672 -13.1875,92.28125 V 0 Z m 0,0"
           id="path3536" />
      </g>
      <g
         id="use562"
         transform="translate(18719.437,7274.9634)">
        <path
           d="m 59.765625,-553.26562 v -90.96875 H 138.875 v 90.96875 z M 59.765625,0 V -466.70312 H 138.875 V 0 Z m 0,0"
           id="path3540" />
      </g>
      <g
         id="use564"
         transform="translate(18919.387,7274.9634)">
        <path
           d="M 188.96875,0 11.421875,-466.70312 h 83.5 l 100.203125,279.5 c 10.83203,30.17968 20.78906,61.52343 29.875,94.031245 7.03125,-24.601565 16.84375,-54.191405 29.4375,-88.765625 l 103.71875,-284.76562 h 81.29687 L 262.79687,0 Z m 0,0"
           id="path3544" />
      </g>
      <g
         id="use566"
         transform="translate(19369.385,7274.9634)">
        <path
           d="m 363.875,-57.5625 c -29.30469,24.898437 -57.50781,42.476562 -84.60938,52.734375 -27.09375,10.25 -56.16796,15.375 -87.21875,15.375 -51.27343,0 -90.67968,-12.519531 -118.218745,-37.5625 -27.542969,-25.050781 -41.3125,-57.0625 -41.3125,-96.031255 0,-22.85156 5.195313,-43.72656 15.59375,-62.62499 10.40625,-18.89454 24.03125,-34.05469 40.875,-45.48438 16.851565,-11.42578 35.828125,-20.06641 56.921875,-25.92187 15.51953,-4.10157 38.95703,-8.0625 70.3125,-11.875 63.86328,-7.61329 110.88281,-16.69141 141.0625,-27.23438 0.28906,-10.84375 0.4375,-17.72656 0.4375,-20.65625 0,-32.22656 -7.47656,-54.9375 -22.42188,-68.125 -20.21093,-17.86328 -50.23437,-26.79687 -90.07812,-26.79687 -37.21094,0 -64.67969,6.52343 -82.40625,19.5625 -17.71875,13.03125 -30.82813,36.10156 -39.32812,69.20312 l -77.343755,-10.54687 c 7.03125,-33.10157 18.601563,-59.83204 34.71875,-80.1875 16.113281,-20.36329 39.406255,-36.03907 69.874995,-47.03125 30.46875,-10.98829 65.76954,-16.48438 105.90625,-16.48438 39.84375,0 72.21094,4.6875 97.10938,14.0625 24.90625,9.375 43.21875,21.16797 54.9375,35.375 11.71875,14.21094 19.92187,32.15625 24.60937,53.84375 2.63282,13.46875 3.95313,37.78125 3.95313,72.9375 v 105.46875 c 0,73.54297 1.67969,120.054687 5.04687,139.53125 3.375,19.480469 10.04688,38.15625 20.01563,56.03125 h -82.625 c -8.19922,-16.40625 -13.46875,-35.59375 -15.8125,-57.5625 z m -6.59375,-176.67187 c -28.71875,11.71875 -71.78906,21.68359 -129.20313,29.89062 -32.52343,4.6875 -55.52343,9.96484 -69,15.82813 -13.46875,5.85546 -23.87109,14.42187 -31.20312,25.70312 -7.32422,11.27344 -10.98437,23.79297 -10.98437,37.5625 0,21.09375 7.98437,38.671875 23.95312,52.734375 15.96875,14.0625 39.33203,21.09375 70.09375,21.09375 30.46875,0 57.56641,-6.660156 81.29687,-19.984375 23.72657,-13.332031 41.16016,-31.57031 52.29688,-54.71875 8.5,-17.875 12.75,-44.23828 12.75,-79.09375 z m 0,0"
           id="path3548" />
      </g>
      <g
         id="use568"
         transform="translate(19869.92,7274.9634)">
        <path
           d="m 232.03125,-70.75 11.42187,69.875 c -22.26171,4.6875 -42.18359,7.03125 -59.76562,7.03125 -28.71094,0 -50.97656,-4.542969 -66.79687,-13.625 -15.8125,-9.082031 -26.945317,-21.019531 -33.39063,-35.8125 -6.449219,-14.800781 -9.671875,-45.929688 -9.671875,-93.39062 v -268.5 h -58 v -61.53125 h 58 v -115.57813 l 78.656245,-47.45312 v 163.03125 h 79.54688 v 61.53125 h -79.54688 v 272.89062 c 0,22.5625 1.39063,37.070312 4.17188,43.515625 2.78906,6.4375 7.33203,11.5625 13.625,15.375 6.30078,3.8125 15.3125,5.71875 27.03125,5.71875 8.78906,0 20.36328,-1.023438 34.71875,-3.078125 z m 0,0"
           id="path3552" />
      </g>
      <g
         id="use570"
         transform="translate(20119.967,7274.9634)">
        <path
           d="m 378.8125,-150.29687 81.73437,10.10937 c -12.88671,47.75 -36.76171,84.8125 -71.625,111.1875 -34.86718,26.367187 -79.39843,39.546875 -133.59375,39.546875 -68.26171,0 -122.39062,-21.019531 -162.39062,-63.0625 C 52.945313,-94.554688 32.953125,-153.51562 32.953125,-229.39062 c 0,-78.51954 20.210938,-139.45704 60.640625,-182.8125 40.4375,-43.36329 92.87891,-65.04688 157.32812,-65.04688 62.40625,0 113.38282,21.24219 152.9375,63.71875 39.55079,42.48047 59.32813,102.24609 59.32813,179.29688 0,4.6875 -0.14844,11.71875 -0.4375,21.09375 H 114.70313 c 2.92578,51.27343 17.42578,90.53124 43.49999,117.781245 26.07032,27.242187 58.59375,40.859375 97.5625,40.859375 29,0 53.75391,-7.613281 74.26563,-22.84375 20.50781,-15.238281 36.76953,-39.55469 48.78125,-72.95312 z m -259.71875,-127.875 H 379.6875 c -3.51172,-39.25782 -13.46875,-68.70313 -29.875,-88.32813 -25.19922,-30.46875 -57.86719,-45.70312 -98,-45.70312 -36.33594,0 -66.88281,12.15625 -91.64063,36.46875 -24.75,24.3125 -38.44531,56.83593 -41.07812,97.5625 z m 0,0"
           id="path3556" />
      </g>
      <g
         id="use572"
         transform="translate(20620.502,7274.9634)" />
      <g
         id="use574"
         transform="translate(20870.549,7274.9634)">
        <path
           d="M 59.765625,0 V -644.23437 H 138.875 v 367.375 L 326.07812,-466.70312 H 428.46875 L 250.04687,-293.5625 446.48437,0 h -97.5625 l -154.25,-238.625 -55.79687,53.60938 V 0 Z m 0,0"
           id="path3562" />
      </g>
      <g
         id="use576"
         transform="translate(21320.547,7274.9634)">
        <path
           d="m 378.8125,-150.29687 81.73437,10.10937 c -12.88671,47.75 -36.76171,84.8125 -71.625,111.1875 -34.86718,26.367187 -79.39843,39.546875 -133.59375,39.546875 -68.26171,0 -122.39062,-21.019531 -162.39062,-63.0625 C 52.945313,-94.554688 32.953125,-153.51562 32.953125,-229.39062 c 0,-78.51954 20.210938,-139.45704 60.640625,-182.8125 40.4375,-43.36329 92.87891,-65.04688 157.32812,-65.04688 62.40625,0 113.38282,21.24219 152.9375,63.71875 39.55079,42.48047 59.32813,102.24609 59.32813,179.29688 0,4.6875 -0.14844,11.71875 -0.4375,21.09375 H 114.70313 c 2.92578,51.27343 17.42578,90.53124 43.49999,117.781245 26.07032,27.242187 58.59375,40.859375 97.5625,40.859375 29,0 53.75391,-7.613281 74.26563,-22.84375 20.50781,-15.238281 36.76953,-39.55469 48.78125,-72.95312 z m -259.71875,-127.875 H 379.6875 c -3.51172,-39.25782 -13.46875,-68.70313 -29.875,-88.32813 -25.19922,-30.46875 -57.86719,-45.70312 -98,-45.70312 -36.33594,0 -66.88281,12.15625 -91.64063,36.46875 -24.75,24.3125 -38.44531,56.83593 -41.07812,97.5625 z m 0,0"
           id="path3566" />
      </g>
      <g
         id="use578"
         transform="translate(21821.082,7274.9634)">
        <path
           d="m 55.8125,179.73437 -8.796875,-74.26562 c 17.289063,4.6875 32.378906,7.03125 45.265625,7.03125 17.58203,0 31.64453,-2.93359 42.1875,-8.79687 10.55078,-5.855474 19.19531,-14.054692 25.9375,-24.593755 C 165.38281,71.191406 173.44141,51.5625 184.57812,20.21875 186.03516,15.820313 188.37891,9.375 191.60937,0.875 L 14.5,-466.70312 h 85.25 l 97.125,270.26562 c 12.59375,34.28125 23.875,70.32031 33.84375,108.109375 9.08203,-36.332035 19.92187,-71.781245 32.51562,-106.343745 l 99.75,-272.03125 h 79.10938 L 264.54687,7.90625 c -19.04296,51.269531 -33.83593,86.570313 -44.375,105.90625 -14.0625,26.08203 -30.17968,45.20312 -48.34375,57.35937 -18.16796,12.15625 -39.85156,18.23438 -65.04687,18.23438 -15.230469,0 -32.21875,-3.22656 -50.96875,-9.67188 z m 0,0"
           id="path3570" />
      </g>
    </g>
    <g
       fill="#232f3d"
       fill-opacity="1"
       id="g584"
       transform="matrix(0.00472217,0,0,0.00472217,31.061891,70.768473)">
      <g
         id="use582"
         transform="translate(22204.283,7274.9634)">
        <path
           d="M 79.984375,0 V -90.09375 H 170.0625 V 0 c 0,33.101563 -5.85938,59.835938 -17.57813,80.203125 C 140.76562,100.56641 122.16406,116.3125 96.6875,127.4375 L 74.703125,93.609375 C 91.398438,86.285156 103.70313,75.515625 111.60938,61.296875 119.52344,47.085938 123.92578,26.65625 124.8125,0 Z m 0,0"
           id="path3574" />
      </g>
    </g>
    <g
       fill="#232f3d"
       fill-opacity="1"
       id="g618"
       transform="matrix(0.00472217,0,0,0.00472217,31.061891,70.768473)">
      <g
         id="use586"
         transform="translate(16960.461,8399.958)">
        <path
           d="M 59.765625,0 V -644.23437 H 138.875 v 367.375 L 326.07812,-466.70312 H 428.46875 L 250.04687,-293.5625 446.48437,0 h -97.5625 l -154.25,-238.625 -55.79687,53.60938 V 0 Z m 0,0"
           id="path3578" />
      </g>
      <g
         id="use588"
         transform="translate(17410.459,8399.958)">
        <path
           d="m 378.8125,-150.29687 81.73437,10.10937 c -12.88671,47.75 -36.76171,84.8125 -71.625,111.1875 -34.86718,26.367187 -79.39843,39.546875 -133.59375,39.546875 -68.26171,0 -122.39062,-21.019531 -162.39062,-63.0625 C 52.945313,-94.554688 32.953125,-153.51562 32.953125,-229.39062 c 0,-78.51954 20.210938,-139.45704 60.640625,-182.8125 40.4375,-43.36329 92.87891,-65.04688 157.32812,-65.04688 62.40625,0 113.38282,21.24219 152.9375,63.71875 39.55079,42.48047 59.32813,102.24609 59.32813,179.29688 0,4.6875 -0.14844,11.71875 -0.4375,21.09375 H 114.70313 c 2.92578,51.27343 17.42578,90.53124 43.49999,117.781245 26.07032,27.242187 58.59375,40.859375 97.5625,40.859375 29,0 53.75391,-7.613281 74.26563,-22.84375 20.50781,-15.238281 36.76953,-39.55469 48.78125,-72.95312 z m -259.71875,-127.875 H 379.6875 c -3.51172,-39.25782 -13.46875,-68.70313 -29.875,-88.32813 -25.19922,-30.46875 -57.86719,-45.70312 -98,-45.70312 -36.33594,0 -66.88281,12.15625 -91.64063,36.46875 -24.75,24.3125 -38.44531,56.83593 -41.07812,97.5625 z m 0,0"
           id="path3582" />
      </g>
      <g
         id="use590"
         transform="translate(17910.994,8399.958)">
        <path
           d="m 378.8125,-150.29687 81.73437,10.10937 c -12.88671,47.75 -36.76171,84.8125 -71.625,111.1875 -34.86718,26.367187 -79.39843,39.546875 -133.59375,39.546875 -68.26171,0 -122.39062,-21.019531 -162.39062,-63.0625 C 52.945313,-94.554688 32.953125,-153.51562 32.953125,-229.39062 c 0,-78.51954 20.210938,-139.45704 60.640625,-182.8125 40.4375,-43.36329 92.87891,-65.04688 157.32812,-65.04688 62.40625,0 113.38282,21.24219 152.9375,63.71875 39.55079,42.48047 59.32813,102.24609 59.32813,179.29688 0,4.6875 -0.14844,11.71875 -0.4375,21.09375 H 114.70313 c 2.92578,51.27343 17.42578,90.53124 43.49999,117.781245 26.07032,27.242187 58.59375,40.859375 97.5625,40.859375 29,0 53.75391,-7.613281 74.26563,-22.84375 20.50781,-15.238281 36.76953,-39.55469 48.78125,-72.95312 z m -259.71875,-127.875 H 379.6875 c -3.51172,-39.25782 -13.46875,-68.70313 -29.875,-88.32813 -25.19922,-30.46875 -57.86719,-45.70312 -98,-45.70312 -36.33594,0 -66.88281,12.15625 -91.64063,36.46875 -24.75,24.3125 -38.44531,56.83593 -41.07812,97.5625 z m 0,0"
           id="path3586" />
      </g>
      <g
         id="use592"
         transform="translate(18411.529,8399.958)">
        <path
           d="m 59.328125,178.85937 v -645.56249 h 72.062495 v 60.64062 c 17,-23.72656 36.19141,-41.52344 57.57813,-53.39062 21.38281,-11.86329 47.3125,-17.79688 77.78125,-17.79688 39.84375,0 75,10.25781 105.46875,30.76563 30.46875,20.51171 53.46094,49.44531 68.98437,86.79687 15.53125,37.35547 23.29688,78.29688 23.29688,122.82813 0,47.75 -8.57031,90.74609 -25.70313,128.98437 -17.13671,38.230469 -42.03906,67.527344 -74.70312,87.890625 -32.66797,20.351563 -67.02344,30.53125 -103.0625,30.53125 -26.36719,0 -50.02344,-5.570312 -70.96875,-16.703125 -20.94922,-11.132813 -38.16406,-25.195313 -51.64063,-42.1875 v 227.20312 z m 71.624995,-409.57812 c 0,60.0625 12.15625,104.44922 36.46875,133.15625 24.32032,28.710937 53.76954,43.0625 88.34375,43.0625 35.15625,0 65.25391,-14.863281 90.29688,-44.59375 25.05078,-29.73828 37.57812,-75.8125 37.57812,-138.21875 0,-59.46875 -12.23437,-103.99219 -36.70312,-133.57812 -24.46094,-29.59375 -53.67969,-44.39063 -87.65625,-44.39063 -33.69922,0 -63.51172,15.75 -89.4375,47.25 -25.92969,31.49219 -38.89063,77.26172 -38.89063,137.3125 z m 0,0"
           id="path3590" />
      </g>
      <g
         id="use594"
         transform="translate(18912.062,8399.958)" />
      <g
         id="use596"
         transform="translate(19162.111,8399.958)">
        <path
           d="m 232.03125,-70.75 11.42187,69.875 c -22.26171,4.6875 -42.18359,7.03125 -59.76562,7.03125 -28.71094,0 -50.97656,-4.542969 -66.79687,-13.625 -15.8125,-9.082031 -26.945317,-21.019531 -33.39063,-35.8125 -6.449219,-14.800781 -9.671875,-45.929688 -9.671875,-93.39062 v -268.5 h -58 v -61.53125 h 58 v -115.57813 l 78.656245,-47.45312 v 163.03125 h 79.54688 v 61.53125 h -79.54688 v 272.89062 c 0,22.5625 1.39063,37.070312 4.17188,43.515625 2.78906,6.4375 7.33203,11.5625 13.625,15.375 6.30078,3.8125 15.3125,5.71875 27.03125,5.71875 8.78906,0 20.36328,-1.023438 34.71875,-3.078125 z m 0,0"
           id="path3596" />
      </g>
      <g
         id="use598"
         transform="translate(19412.158,8399.958)">
        <path
           d="m 29.890625,-233.34375 c 0,-86.42578 24.019531,-150.44141 72.062505,-192.04687 40.13281,-34.57032 89.06249,-51.85938 146.78124,-51.85938 64.15625,0 116.59375,21.02344 157.3125,63.0625 40.72657,42.04297 61.09375,100.125 61.09375,174.25 0,60.05469 -9.01171,107.29297 -27.03125,141.71875 -18.01171,34.429687 -44.23046,61.164062 -78.65625,80.203125 -34.42968,19.039063 -72,28.5625 -112.71875,28.5625 -65.33593,0 -118.14062,-20.945313 -158.42187,-62.84375 C 50.03125,-94.191406 29.890625,-154.53906 29.890625,-233.34375 Z m 81.296875,0 c 0,59.76172 13.03516,104.51172 39.10937,134.25 26.07032,29.730469 58.88282,44.59375 98.4375,44.59375 39.25782,0 71.92579,-14.9375 98,-44.8125 26.07032,-29.88281 39.10938,-75.44141 39.10938,-136.67187 0,-57.71875 -13.11719,-101.44141 -39.34375,-131.17188 -26.21875,-29.73828 -58.80859,-44.60937 -97.76563,-44.60937 -39.55468,0 -72.36718,14.79687 -98.4375,44.39062 -26.07421,29.58594 -39.10937,74.26172 -39.10937,134.03125 z m 0,0"
           id="path3600" />
      </g>
      <g
         id="use600"
         transform="translate(19912.693,8399.958)" />
      <g
         id="use602"
         transform="translate(20162.74,8399.958)">
        <path
           d="m 55.8125,179.73437 -8.796875,-74.26562 c 17.289063,4.6875 32.378906,7.03125 45.265625,7.03125 17.58203,0 31.64453,-2.93359 42.1875,-8.79687 10.55078,-5.855474 19.19531,-14.054692 25.9375,-24.593755 C 165.38281,71.191406 173.44141,51.5625 184.57812,20.21875 186.03516,15.820313 188.37891,9.375 191.60937,0.875 L 14.5,-466.70312 h 85.25 l 97.125,270.26562 c 12.59375,34.28125 23.875,70.32031 33.84375,108.109375 9.08203,-36.332035 19.92187,-71.781245 32.51562,-106.343745 l 99.75,-272.03125 h 79.10938 L 264.54687,7.90625 c -19.04296,51.269531 -33.83593,86.570313 -44.375,105.90625 -14.0625,26.08203 -30.17968,45.20312 -48.34375,57.35937 -18.16796,12.15625 -39.85156,18.23438 -65.04687,18.23438 -15.230469,0 -32.21875,-3.22656 -50.96875,-9.67188 z m 0,0"
           id="path3606" />
      </g>
      <g
         id="use604"
         transform="translate(20612.738,8399.958)">
        <path
           d="m 29.890625,-233.34375 c 0,-86.42578 24.019531,-150.44141 72.062505,-192.04687 40.13281,-34.57032 89.06249,-51.85938 146.78124,-51.85938 64.15625,0 116.59375,21.02344 157.3125,63.0625 40.72657,42.04297 61.09375,100.125 61.09375,174.25 0,60.05469 -9.01171,107.29297 -27.03125,141.71875 -18.01171,34.429687 -44.23046,61.164062 -78.65625,80.203125 -34.42968,19.039063 -72,28.5625 -112.71875,28.5625 -65.33593,0 -118.14062,-20.945313 -158.42187,-62.84375 C 50.03125,-94.191406 29.890625,-154.53906 29.890625,-233.34375 Z m 81.296875,0 c 0,59.76172 13.03516,104.51172 39.10937,134.25 26.07032,29.730469 58.88282,44.59375 98.4375,44.59375 39.25782,0 71.92579,-14.9375 98,-44.8125 26.07032,-29.88281 39.10938,-75.44141 39.10938,-136.67187 0,-57.71875 -13.11719,-101.44141 -39.34375,-131.17188 -26.21875,-29.73828 -58.80859,-44.60937 -97.76563,-44.60937 -39.55468,0 -72.36718,14.79687 -98.4375,44.39062 -26.07421,29.58594 -39.10937,74.26172 -39.10937,134.03125 z m 0,0"
           id="path3610" />
      </g>
      <g
         id="use606"
         transform="translate(21113.273,8399.958)">
        <path
           d="m 365.1875,0 v -68.5625 c -36.33594,52.742187 -85.69922,79.109375 -148.09375,79.109375 -27.54297,0 -53.25,-5.273437 -77.125,-15.8125 -23.875,-10.550781 -41.601562,-23.8125 -53.171875,-39.78125 C 75.222656,-61.015625 67.09375,-80.570313 62.40625,-103.71875 59.175781,-119.23828 57.5625,-143.84766 57.5625,-177.54687 v -289.15625 h 79.10937 v 258.84375 c 0,41.30468 1.60938,69.13671 4.82813,83.49999 4.97656,20.79297 15.52344,37.125005 31.64062,49.000005 16.11329,11.867187 36.03516,17.796875 59.76563,17.796875 23.72656,0 45.99219,-6.078125 66.79687,-18.234375 20.80079,-12.164063 35.52344,-28.722655 44.17188,-49.671875 8.64453,-20.94531 12.96875,-51.34375 12.96875,-91.1875 V -466.70312 H 435.9375 V 0 Z m 0,0"
           id="path3614" />
      </g>
      <g
         id="use608"
         transform="translate(21613.807,8399.958)">
        <path
           d="m 58.453125,0 v -466.70312 h 71.187495 v 70.75 c 18.16407,-33.10157 34.9375,-54.92579 50.3125,-65.46875 15.38282,-10.55079 32.30469,-15.82813 50.76563,-15.82813 26.65625,0 53.75391,8.49609 81.29687,25.48438 l -27.25,73.39062 c -19.33593,-11.42578 -38.66796,-17.14062 -58,-17.14062 -17.29296,0 -32.82421,5.20312 -46.59375,15.60937 -13.77343,10.39844 -23.58593,24.82422 -29.4375,43.28125 -8.79296,28.125 -13.1875,58.88672 -13.1875,92.28125 V 0 Z m 0,0"
           id="path3618" />
      </g>
      <g
         id="use610"
         transform="translate(21913.514,8399.958)">
        <path
           d="m 27.6875,-139.3125 78.21875,-12.29687 c 4.39453,31.34374 16.625,55.367182 36.6875,72.062495 20.07031,16.699219 48.12891,25.046875 84.17187,25.046875 36.32032,0 63.26954,-7.394531 80.84375,-22.1875 17.58204,-14.789063 26.375,-32.14844 26.375,-52.07812 0,-17.86329 -7.76562,-31.92579 -23.29687,-42.1875 -10.83594,-7.03125 -37.78906,-15.96094 -80.85938,-26.79688 -58,-14.65625 -98.21093,-27.32812 -120.62499,-38.01562 -22.406255,-10.69532 -39.398442,-25.49219 -50.968755,-44.39063 -11.574219,-18.89453 -17.359375,-39.76953 -17.359375,-62.625 0,-20.78906 4.757813,-40.05078 14.28125,-57.78125 9.519531,-17.72656 22.484375,-32.45312 38.890625,-44.17187 12.300785,-9.07032 29.070315,-16.75782 50.312495,-23.0625 21.23829,-6.30079 44.01954,-9.45313 68.34375,-9.45313 36.61329,0 68.76563,5.27734 96.45313,15.82813 27.6875,10.54296 48.11719,24.82421 61.29687,42.84375 13.1875,18.02343 22.26954,42.11718 27.25,72.28125 L 320.35937,-335.75 c -3.51171,-24.01953 -13.69531,-42.76562 -30.54687,-56.23437 -16.84375,-13.47657 -40.64844,-20.21875 -71.40625,-20.21875 -36.32422,0 -62.25,6.00781 -77.78125,18.01562 -15.53125,12.01172 -23.29687,26.07422 -23.29687,42.1875 0,10.25 3.22265,19.48047 9.67187,27.6875 6.44531,8.49219 16.55469,15.52344 30.32812,21.09375 7.90625,2.92969 31.19532,9.66406 69.875,20.20313 55.95704,14.94921 94.99219,27.18359 117.10938,36.70312 22.11328,9.52344 39.46875,23.36719 52.0625,41.53125 12.60156,18.15625 18.90625,40.71484 18.90625,67.67188 0,26.36718 -7.69531,51.195307 -23.07813,74.48437 -15.375,23.292969 -37.57031,41.3125 -66.57812,54.0625 -29,12.738281 -61.80859,19.109375 -98.42188,19.109375 C 166.55469,10.546875 120.33594,-2.050781 88.546875,-27.25 56.765625,-52.445313 36.476563,-89.800781 27.6875,-139.3125 Z m 0,0"
           id="path3622" />
      </g>
      <g
         id="use612"
         transform="translate(22363.512,8399.958)">
        <path
           d="m 378.8125,-150.29687 81.73437,10.10937 c -12.88671,47.75 -36.76171,84.8125 -71.625,111.1875 -34.86718,26.367187 -79.39843,39.546875 -133.59375,39.546875 -68.26171,0 -122.39062,-21.019531 -162.39062,-63.0625 C 52.945313,-94.554688 32.953125,-153.51562 32.953125,-229.39062 c 0,-78.51954 20.210938,-139.45704 60.640625,-182.8125 40.4375,-43.36329 92.87891,-65.04688 157.32812,-65.04688 62.40625,0 113.38282,21.24219 152.9375,63.71875 39.55079,42.48047 59.32813,102.24609 59.32813,179.29688 0,4.6875 -0.14844,11.71875 -0.4375,21.09375 H 114.70313 c 2.92578,51.27343 17.42578,90.53124 43.49999,117.781245 26.07032,27.242187 58.59375,40.859375 97.5625,40.859375 29,0 53.75391,-7.613281 74.26563,-22.84375 20.50781,-15.238281 36.76953,-39.55469 48.78125,-72.95312 z m -259.71875,-127.875 H 379.6875 c -3.51172,-39.25782 -13.46875,-68.70313 -29.875,-88.32813 -25.19922,-30.46875 -57.86719,-45.70312 -98,-45.70312 -36.33594,0 -66.88281,12.15625 -91.64063,36.46875 -24.75,24.3125 -38.44531,56.83593 -41.07812,97.5625 z m 0,0"
           id="path3626" />
      </g>
      <g
         id="use614"
         transform="translate(22864.045,8399.958)">
        <path
           d="m 57.5625,0 v -644.23437 h 79.10937 V 0 Z m 0,0"
           id="path3630" />
      </g>
      <g
         id="use616"
         transform="translate(23063.996,8399.958)">
        <path
           d="m 78.21875,0 v -405.17187 h -69.875 v -61.53125 h 69.875 v -49.65625 c 0,-31.34375 2.785156,-54.63282 8.359375,-69.875 7.613281,-20.50782 21.015625,-37.13282 40.203125,-49.875 19.1875,-12.73829 46.06641,-19.10938 80.64062,-19.10938 22.26954,0 46.87891,2.63672 73.82813,7.90625 l -11.85938,68.98438 c -16.40625,-2.92579 -31.9375,-4.39063 -46.59375,-4.39063 -24.02343,0 -41.01171,5.13281 -50.96875,15.39063 -9.96093,10.25 -14.9375,29.4375 -14.9375,57.5625 v 43.0625 h 90.96875 v 61.53125 H 156.89062 V 0 Z m 0,0"
           id="path3634" />
      </g>
    </g>
    <path
       style="color:#000000;fill:#000000;stroke-width:0.00973384;stroke-miterlimit:10;-inkscape-stroke:none"
       d="m 102.31038,70.737878 c -0.45,0 -0.89669,0.129223 -1.28598,0.310436 -0.38902,0.181083 -0.71854,0.403565 -0.93576,0.684997 -0.666445,0.813795 -0.915922,1.524111 -0.973552,2.286608 h -0.760793 c -0.136134,0 -0.287874,0.04178 -0.409505,0.151121 -0.121634,0.109344 -0.189639,0.282801 -0.189639,0.439808 v 6.938833 c 0,0.121399 0.02766,0.268871 0.135872,0.395321 0.108201,0.126452 0.284452,0.187186 0.424258,0.187186 h 7.958789 c 0.1251,0 0.26207,-0.04078 0.36833,-0.13557 0.10626,-0.09479 0.1696,-0.242035 0.1696,-0.380245 v -7.013966 c 0,-0.132435 -0.0386,-0.302611 -0.16549,-0.426614 -0.12688,-0.124003 -0.29078,-0.155874 -0.41225,-0.155874 h -0.758 c -0.0719,-0.699392 -0.33367,-1.422826 -0.74564,-1.987236 -0.50128,-0.716992 -1.40925,-1.294805 -2.42024,-1.294805 z m 0,0.769503 c 0.70001,0 1.43888,0.463093 1.79109,0.96819 l 0.002,0.0037 0.002,0.0036 c 0.37201,0.507942 0.62097,1.298004 0.62097,1.921837 v 0.384752 h 1.31486 v 6.573282 h -7.517607 v -6.573284 h 1.345491 V 74.40467 c 0,-0.819586 0.118872,-1.338536 0.819956,-2.191551 l 0.004,-0.0046 0.004,-0.0048 c 0.0883,-0.114557 0.34479,-0.314999 0.65159,-0.457812 0.3068,-0.142813 0.66613,-0.238555 0.96125,-0.238555 z m -0.0123,0.359523 c -1.18292,0 -2.08556,1.182229 -2.08556,2.537766 v 0.384751 h 4.16367 l -0.004,-0.3888 c -0.0147,-1.400506 -0.93014,-2.533717 -2.07403,-2.533717 z m 0,0.769503 c 0.52977,0 1.12044,0.534099 1.26914,1.383512 h -2.55098 c 0.14436,-0.813364 0.72894,-1.383512 1.28184,-1.383512 z m -0.0153,3.081224 c -0.76059,0 -1.3634,0.62483 -1.3634,1.347466 0,0.402436 0.17846,0.767864 0.46175,1.025339 l -0.46046,1.608492 -3.5e-4,0.0019 c -0.053,0.192446 -0.0316,0.423974 0.0995,0.592318 0.13113,0.168343 0.33531,0.239428 0.51651,0.239428 h 1.47952 c 0.18082,0 0.37075,-0.05657 0.50999,-0.204086 0.13925,-0.147514 0.18773,-0.384054 0.13601,-0.572812 l -0.44973,-1.672161 c 0.25965,-0.246728 0.43507,-0.586969 0.43507,-0.975491 0,-0.772015 -0.62041,-1.390375 -1.36423,-1.390375 z m 0,0.769503 c 0.33597,0 0.59473,0.24009 0.59473,0.620872 0,0.232915 -0.0893,0.368779 -0.30893,0.508591 l -0.23828,0.15171 0.53651,1.994765 h -1.16409 l 0.57386,-2.004593 -0.25977,-0.150342 c -0.2212,-0.12801 -0.32793,-0.299852 -0.32793,-0.54304 0,-0.233933 0.30845,-0.577963 0.5939,-0.577963 z"
       id="path692" />
    <g
       fill="#232f3d"
       fill-opacity="1"
       id="g700"
       transform="matrix(0.00472217,0,0,0.00472217,31.061891,70.768473)">
      <g
         id="use694"
         transform="translate(13570.244,4049.9795)">
        <path
           d="M 59.765625,0 V -644.23437 H 138.875 v 367.375 L 326.07812,-466.70312 H 428.46875 L 250.04687,-293.5625 446.48437,0 h -97.5625 l -154.25,-238.625 -55.79687,53.60938 V 0 Z m 0,0"
           id="path3770" />
      </g>
      <g
         id="use696"
         transform="translate(14020.242,4049.9795)">
        <path
           d="m 378.8125,-150.29687 81.73437,10.10937 c -12.88671,47.75 -36.76171,84.8125 -71.625,111.1875 -34.86718,26.367187 -79.39843,39.546875 -133.59375,39.546875 -68.26171,0 -122.39062,-21.019531 -162.39062,-63.0625 C 52.945313,-94.554688 32.953125,-153.51562 32.953125,-229.39062 c 0,-78.51954 20.210938,-139.45704 60.640625,-182.8125 40.4375,-43.36329 92.87891,-65.04688 157.32812,-65.04688 62.40625,0 113.38282,21.24219 152.9375,63.71875 39.55079,42.48047 59.32813,102.24609 59.32813,179.29688 0,4.6875 -0.14844,11.71875 -0.4375,21.09375 H 114.70313 c 2.92578,51.27343 17.42578,90.53124 43.49999,117.781245 26.07032,27.242187 58.59375,40.859375 97.5625,40.859375 29,0 53.75391,-7.613281 74.26563,-22.84375 20.50781,-15.238281 36.76953,-39.55469 48.78125,-72.95312 z m -259.71875,-127.875 H 379.6875 c -3.51172,-39.25782 -13.46875,-68.70313 -29.875,-88.32813 -25.19922,-30.46875 -57.86719,-45.70312 -98,-45.70312 -36.33594,0 -66.88281,12.15625 -91.64063,36.46875 -24.75,24.3125 -38.44531,56.83593 -41.07812,97.5625 z m 0,0"
           id="path3774" />
      </g>
      <g
         id="use698"
         transform="translate(14520.776,4049.9795)">
        <path
           d="m 55.8125,179.73437 -8.796875,-74.26562 c 17.289063,4.6875 32.378906,7.03125 45.265625,7.03125 17.58203,0 31.64453,-2.93359 42.1875,-8.79687 10.55078,-5.855474 19.19531,-14.054692 25.9375,-24.593755 C 165.38281,71.191406 173.44141,51.5625 184.57812,20.21875 186.03516,15.820313 188.37891,9.375 191.60937,0.875 L 14.5,-466.70312 h 85.25 l 97.125,270.26562 c 12.59375,34.28125 23.875,70.32031 33.84375,108.109375 9.08203,-36.332035 19.92187,-71.781245 32.51562,-106.343745 l 99.75,-272.03125 h 79.10938 L 264.54687,7.90625 c -19.04296,51.269531 -33.83593,86.570313 -44.375,105.90625 -14.0625,26.08203 -30.17968,45.20312 -48.34375,57.35937 -18.16796,12.15625 -39.85156,18.23438 -65.04687,18.23438 -15.230469,0 -32.21875,-3.22656 -50.96875,-9.67188 z m 0,0"
           id="path3778" />
      </g>
    </g>
    <g
       fill="#232f3d"
       fill-opacity="1"
       id="g710"
       transform="matrix(0.00472217,0,0,0.00472217,31.061891,70.768473)">
      <g
         id="use702"
         transform="translate(14903.978,4049.9795)">
        <path
           d="M 81.734375,0 V -90.09375 H 171.82812 V 0 Z m 0,0"
           id="path3782" />
      </g>
      <g
         id="use704"
         transform="translate(15154.025,4049.9795)">
        <path
           d="m 59.328125,178.85937 v -645.56249 h 72.062495 v 60.64062 c 17,-23.72656 36.19141,-41.52344 57.57813,-53.39062 21.38281,-11.86329 47.3125,-17.79688 77.78125,-17.79688 39.84375,0 75,10.25781 105.46875,30.76563 30.46875,20.51171 53.46094,49.44531 68.98437,86.79687 15.53125,37.35547 23.29688,78.29688 23.29688,122.82813 0,47.75 -8.57031,90.74609 -25.70313,128.98437 -17.13671,38.230469 -42.03906,67.527344 -74.70312,87.890625 -32.66797,20.351563 -67.02344,30.53125 -103.0625,30.53125 -26.36719,0 -50.02344,-5.570312 -70.96875,-16.703125 -20.94922,-11.132813 -38.16406,-25.195313 -51.64063,-42.1875 v 227.20312 z m 71.624995,-409.57812 c 0,60.0625 12.15625,104.44922 36.46875,133.15625 24.32032,28.710937 53.76954,43.0625 88.34375,43.0625 35.15625,0 65.25391,-14.863281 90.29688,-44.59375 25.05078,-29.73828 37.57812,-75.8125 37.57812,-138.21875 0,-59.46875 -12.23437,-103.99219 -36.70312,-133.57812 -24.46094,-29.59375 -53.67969,-44.39063 -87.65625,-44.39063 -33.69922,0 -63.51172,15.75 -89.4375,47.25 -25.92969,31.49219 -38.89063,77.26172 -38.89063,137.3125 z m 0,0"
           id="path3786" />
      </g>
      <g
         id="use706"
         transform="translate(15654.56,4049.9795)">
        <path
           d="m 365.1875,0 v -68.5625 c -36.33594,52.742187 -85.69922,79.109375 -148.09375,79.109375 -27.54297,0 -53.25,-5.273437 -77.125,-15.8125 -23.875,-10.550781 -41.601562,-23.8125 -53.171875,-39.78125 C 75.222656,-61.015625 67.09375,-80.570313 62.40625,-103.71875 59.175781,-119.23828 57.5625,-143.84766 57.5625,-177.54687 v -289.15625 h 79.10937 v 258.84375 c 0,41.30468 1.60938,69.13671 4.82813,83.49999 4.97656,20.79297 15.52344,37.125005 31.64062,49.000005 16.11329,11.867187 36.03516,17.796875 59.76563,17.796875 23.72656,0 45.99219,-6.078125 66.79687,-18.234375 20.80079,-12.164063 35.52344,-28.722655 44.17188,-49.671875 8.64453,-20.94531 12.96875,-51.34375 12.96875,-91.1875 V -466.70312 H 435.9375 V 0 Z m 0,0"
           id="path3790" />
      </g>
      <g
         id="use708"
         transform="translate(16155.095,4049.9795)">
        <path
           d="M 132.28125,0 H 58.890625 v -644.23437 h 79.093745 v 229.82812 C 171.39062,-456.30078 214.01953,-477.25 265.875,-477.25 c 28.70703,0 55.87891,5.78906 81.51562,17.35938 25.63282,11.57421 46.72657,27.83593 63.28125,48.78125 16.55079,20.94921 29.51563,46.21875 38.89063,75.8125 9.375,29.58593 14.0625,61.22656 14.0625,94.92187 0,79.98047 -19.77734,141.796875 -59.32813,185.453125 -39.55468,43.648437 -87.01171,65.46875 -142.375,65.46875 -55.08593,0 -98.29687,-23 -129.64062,-69 z m -0.89063,-236.85937 c 0,55.94921 7.61719,96.375 22.85938,121.28124 24.90625,40.718755 58.59766,61.07813 101.07812,61.07813 34.5625,0 64.44141,-15.007813 89.64063,-45.03125 25.19531,-30.03125 37.79687,-74.78516 37.79687,-134.26562 0,-60.9375 -12.08984,-105.90625 -36.26562,-134.90625 -24.16797,-29 -53.38672,-43.5 -87.65625,-43.5 -34.57422,0 -64.46094,15.01562 -89.65625,45.04687 -25.19922,30.02344 -37.79688,73.45313 -37.79688,130.29688 z m 0,0"
           id="path3794" />
      </g>
    </g>
    <path
       style="font-size:4.9389px;line-height:1;font-family:Consolas;-inkscape-font-specification:Consolas;fill:#6c5353;stroke-width:0.4"
       d="m 37.47227,91.338539 h -0.540193 l -1.179259,-1.545818 v 1.545818 h -0.429259 v -3.151925 h 0.429259 v 1.463825 l 1.155144,-1.463825 h 0.508841 l -1.244371,1.497587 z m 2.621378,-1.338422 q 0,0.08923 -0.0024,0.149517 -0.0024,0.06029 -0.0072,0.113344 h -1.700158 q 0,0.371382 0.207395,0.571543 0.207395,0.197748 0.59807,0.197748 0.106109,0 0.212218,-0.0072 0.106109,-0.0096 0.204984,-0.02412 0.09887,-0.01447 0.188103,-0.03135 0.09164,-0.01929 0.16881,-0.041 v 0.344855 q -0.171222,0.04823 -0.388264,0.07717 -0.21463,0.03135 -0.44614,0.03135 -0.311093,0 -0.535369,-0.0844 -0.224277,-0.08441 -0.368971,-0.243568 -0.142283,-0.161576 -0.212218,-0.393087 -0.06752,-0.233922 -0.06752,-0.528134 0,-0.255627 0.07235,-0.482314 0.07476,-0.2291 0.21463,-0.400321 0.142282,-0.173634 0.347266,-0.27492 0.204984,-0.101286 0.465434,-0.101286 0.253215,0 0.448552,0.07958 0.195337,0.07958 0.327974,0.226688 0.135048,0.144694 0.202572,0.354501 0.06994,0.207395 0.06994,0.465434 z m -0.436494,-0.06029 q 0.0072,-0.161575 -0.03135,-0.294212 -0.03858,-0.135048 -0.120578,-0.231511 -0.07958,-0.09646 -0.200161,-0.149517 -0.120578,-0.05547 -0.279742,-0.05547 -0.13746,0 -0.250804,0.05305 -0.113343,0.05306 -0.195337,0.149518 -0.08199,0.09646 -0.132636,0.231511 -0.05064,0.135048 -0.0627,0.296623 z m 3.260445,-1.022506 -0.824757,2.165591 q -0.127814,0.330386 -0.265273,0.569132 -0.135048,0.238745 -0.296624,0.390674 -0.161575,0.154341 -0.354501,0.226688 -0.192925,0.07235 -0.431671,0.07235 -0.0627,0 -0.113344,-0.0024 -0.05064,-0.0024 -0.110932,-0.0072 v -0.381029 q 0.05305,0.0072 0.115755,0.01206 0.0627,0.0072 0.132637,0.0072 0.115755,0 0.21463,-0.03376 0.101286,-0.03376 0.190514,-0.110932 0.08923,-0.07476 0.171221,-0.195338 0.08199,-0.120578 0.159164,-0.2918 l -0.96704,-2.421218 h 0.477491 l 0.612539,1.601284 0.12299,0.376205 0.139872,-0.385852 0.566719,-1.591637 z m 5.020894,0.342443 q 0.06752,0.0844 0.103697,0.197749 0.03859,0.110932 0.03859,0.241157 0,0.188103 -0.06994,0.344855 -0.06752,0.15434 -0.192926,0.265273 -0.125402,0.110932 -0.301446,0.173633 -0.173634,0.06029 -0.38344,0.06029 -0.151929,0 -0.284566,-0.03135 -0.132636,-0.03376 -0.209807,-0.08199 -0.04582,0.06752 -0.07717,0.127814 -0.03135,0.06029 -0.03135,0.135048 0,0.09164 0.08682,0.151929 0.08923,0.06029 0.233923,0.06511 l 0.636655,0.02412 q 0.180868,0.0048 0.332797,0.04582 0.15434,0.041 0.262861,0.118167 0.110932,0.07717 0.171222,0.190514 0.0627,0.113344 0.0627,0.262861 0,0.161576 -0.06994,0.30627 -0.06994,0.144694 -0.217042,0.253215 -0.144694,0.110933 -0.36897,0.176045 -0.224276,0.06511 -0.532958,0.06511 -0.294211,0 -0.501607,-0.04823 -0.204983,-0.04582 -0.33762,-0.130225 -0.132636,-0.08199 -0.192925,-0.197749 -0.06029,-0.113344 -0.06029,-0.250803 0,-0.176045 0.08199,-0.308682 0.08199,-0.132636 0.253215,-0.255626 -0.0627,-0.02894 -0.108521,-0.07235 -0.04582,-0.04341 -0.07476,-0.09405 -0.02894,-0.05305 -0.04341,-0.110932 -0.01447,-0.05788 -0.01447,-0.113344 0,-0.156752 0.07235,-0.286977 0.07476,-0.130225 0.176044,-0.24598 -0.04582,-0.05547 -0.08199,-0.108521 -0.03376,-0.05306 -0.06029,-0.113344 -0.02412,-0.0627 -0.03858,-0.132637 -0.01206,-0.07235 -0.01206,-0.163986 0,-0.188103 0.06752,-0.342444 0.06994,-0.156752 0.192925,-0.267684 0.125402,-0.110933 0.299035,-0.171222 0.176045,-0.0627 0.388264,-0.0627 0.08923,0 0.171221,0.01206 0.08199,0.01206 0.144695,0.03135 h 0.877812 v 0.342443 z m -1.45659,2.428453 q 0,0.171222 0.178456,0.248392 0.178457,0.07958 0.496784,0.07958 0.200161,0 0.335209,-0.03617 0.137459,-0.03617 0.219453,-0.09646 0.08441,-0.05788 0.120579,-0.135048 0.03617,-0.07476 0.03617,-0.15434 0,-0.147106 -0.120578,-0.217042 -0.120579,-0.06994 -0.368971,-0.08199 l -0.631832,-0.0217 q -0.07958,0.05305 -0.132636,0.103697 -0.05064,0.05064 -0.07958,0.101286 -0.02894,0.05306 -0.041,0.103698 -0.01206,0.05306 -0.01206,0.106109 z m 0.127813,-1.979901 q 0,0.115756 0.03859,0.212219 0.03858,0.09646 0.10852,0.163987 0.06994,0.06752 0.163987,0.106109 0.09646,0.03617 0.212219,0.03617 0.125401,0 0.221864,-0.041 0.09887,-0.04341 0.163987,-0.115756 0.06752,-0.07235 0.101286,-0.166398 0.03617,-0.09405 0.03617,-0.195338 0,-0.115755 -0.03859,-0.212218 -0.03859,-0.09646 -0.108521,-0.163987 -0.06994,-0.06752 -0.166399,-0.103698 -0.09405,-0.03858 -0.209806,-0.03858 -0.125402,0 -0.224277,0.04341 -0.09646,0.04341 -0.163987,0.115755 -0.06511,0.06994 -0.101286,0.163987 -0.03376,0.09405 -0.03376,0.195337 z m 4.345654,0.291801 q 0,0.08923 -0.0024,0.149517 -0.0024,0.06029 -0.0072,0.113344 h -1.700158 q 0,0.371382 0.207395,0.571543 0.207395,0.197748 0.59807,0.197748 0.106109,0 0.212218,-0.0072 0.106109,-0.0096 0.204984,-0.02412 0.09887,-0.01447 0.188103,-0.03135 0.09164,-0.01929 0.16881,-0.041 v 0.344855 q -0.171222,0.04823 -0.388264,0.07717 -0.214629,0.03135 -0.44614,0.03135 -0.311093,0 -0.535369,-0.0844 -0.224277,-0.08441 -0.368971,-0.243568 -0.142283,-0.161576 -0.212218,-0.393087 -0.06752,-0.233922 -0.06752,-0.528134 0,-0.255627 0.07235,-0.482314 0.07476,-0.2291 0.21463,-0.400321 0.142282,-0.173634 0.347266,-0.27492 0.204984,-0.101286 0.465434,-0.101286 0.253215,0 0.448552,0.07958 0.195337,0.07958 0.327974,0.226688 0.135048,0.144694 0.202572,0.354501 0.06994,0.207395 0.06994,0.465434 z m -0.436495,-0.06029 q 0.0072,-0.161575 -0.03135,-0.294212 -0.03858,-0.135048 -0.120578,-0.231511 -0.07958,-0.09646 -0.200161,-0.149517 -0.120578,-0.05547 -0.279742,-0.05547 -0.13746,0 -0.250804,0.05305 -0.113343,0.05306 -0.195337,0.149518 -0.08199,0.09646 -0.132636,0.231511 -0.05064,0.135048 -0.0627,0.296623 z m 1.106911,-1.022506 h 0.373794 l 0.01688,0.390674 q 0.106109,-0.125401 0.204984,-0.207395 0.09887,-0.08441 0.192926,-0.135048 0.09646,-0.05064 0.195337,-0.06994 0.09887,-0.0217 0.204984,-0.0217 0.373793,0 0.564308,0.221865 0.192925,0.219453 0.192925,0.663182 v 1.57958 h -0.419613 v -1.545818 q 0,-0.284565 -0.106109,-0.419613 -0.10611,-0.13746 -0.315916,-0.13746 -0.07717,0 -0.151929,0.02412 -0.07235,0.0217 -0.15193,0.07958 -0.07958,0.05547 -0.173633,0.151929 -0.09164,0.09646 -0.207395,0.241157 v 1.606107 h -0.419614 z m 4.760443,1.082796 q 0,0.08923 -0.0024,0.149517 -0.0024,0.06029 -0.0072,0.113344 h -1.700159 q 0,0.371382 0.207396,0.571543 0.207395,0.197748 0.598069,0.197748 0.10611,0 0.212219,-0.0072 0.106109,-0.0096 0.204983,-0.02412 0.09887,-0.01447 0.188103,-0.03135 0.09164,-0.01929 0.16881,-0.041 v 0.344855 q -0.171221,0.04823 -0.388263,0.07717 -0.21463,0.03135 -0.446141,0.03135 -0.311093,0 -0.535369,-0.0844 -0.224276,-0.08441 -0.36897,-0.243568 -0.142283,-0.161576 -0.212219,-0.393087 -0.06752,-0.233922 -0.06752,-0.528134 0,-0.255627 0.07235,-0.482314 0.07476,-0.2291 0.21463,-0.400321 0.142283,-0.173634 0.347267,-0.27492 0.204983,-0.101286 0.465433,-0.101286 0.253215,0 0.448553,0.07958 0.195337,0.07958 0.327973,0.226688 0.135048,0.144694 0.202572,0.354501 0.06994,0.207395 0.06994,0.465434 z m -0.436495,-0.06029 q 0.0072,-0.161575 -0.03135,-0.294212 -0.03859,-0.135048 -0.120579,-0.231511 -0.07958,-0.09646 -0.20016,-0.149517 -0.120579,-0.05547 -0.279742,-0.05547 -0.13746,0 -0.250804,0.05305 -0.113344,0.05306 -0.195337,0.149518 -0.08199,0.09646 -0.132637,0.231511 -0.05064,0.135048 -0.0627,0.296623 z m 1.205787,-1.022506 h 0.38344 l 0.01206,0.44614 q 0.21463,-0.258038 0.422025,-0.373793 0.209807,-0.115756 0.422026,-0.115756 0.376205,0 0.569131,0.243569 0.195337,0.243569 0.180868,0.723472 h -0.424437 q 0.0072,-0.318328 -0.09405,-0.460611 -0.09887,-0.144694 -0.291801,-0.144694 -0.08441,0 -0.171221,0.03135 -0.0844,0.02894 -0.176045,0.09646 -0.08923,0.06511 -0.190514,0.16881 -0.101286,0.103698 -0.217042,0.250804 v 1.555464 h -0.424437 z m 4.172021,2.421218 -0.0096,-0.325562 q -0.197749,0.195337 -0.402733,0.282154 -0.202572,0.08682 -0.426848,0.08682 -0.207395,0 -0.354501,-0.05305 -0.147106,-0.05306 -0.243569,-0.144695 -0.09405,-0.09405 -0.139871,-0.219453 -0.04341,-0.125401 -0.04341,-0.272507 0,-0.364148 0.270096,-0.569131 0.272508,-0.207396 0.803053,-0.207396 h 0.501607 v -0.212218 q 0,-0.21463 -0.137459,-0.342443 -0.13746,-0.130225 -0.419614,-0.130225 -0.204983,0 -0.405144,0.04582 -0.197749,0.04582 -0.409967,0.130225 v -0.378617 q 0.07958,-0.02894 0.176045,-0.05547 0.09887,-0.02894 0.207395,-0.05064 0.108521,-0.0217 0.226688,-0.03376 0.118167,-0.01447 0.238745,-0.01447 0.219453,0 0.395498,0.04823 0.176045,0.04823 0.296624,0.147106 0.12299,0.09887 0.188102,0.248392 0.06511,0.149517 0.06511,0.352089 v 1.668808 z m -0.04582,-1.102088 h -0.532957 q -0.156752,0 -0.270096,0.03135 -0.113344,0.03135 -0.185691,0.08923 -0.07235,0.05788 -0.108521,0.139871 -0.03376,0.07958 -0.03376,0.180868 0,0.06994 0.0217,0.135048 0.0217,0.0627 0.06994,0.113344 0.04823,0.04823 0.125402,0.07717 0.07717,0.02894 0.188102,0.02894 0.144695,0 0.330386,-0.08682 0.188102,-0.08923 0.395497,-0.279743 z m 3.156747,1.068326 q -0.142282,0.03617 -0.294211,0.05064 -0.151929,0.01688 -0.308682,0.01688 -0.455787,0 -0.680063,-0.204984 -0.224276,-0.207395 -0.224276,-0.634243 V 89.26941 h -0.677652 v -0.352089 h 0.677652 v -0.665594 l 0.419613,-0.108521 v 0.774115 h 1.087619 V 89.26941 H 63.35085 v 1.229902 q 0,0.26045 0.13746,0.390675 0.139871,0.127813 0.409967,0.127813 0.115756,0 0.253215,-0.01688 0.13746,-0.01929 0.286977,-0.05788 z m 2.872182,-1.19614 q 0,0.282154 -0.07958,0.518488 -0.07958,0.233923 -0.229099,0.402733 -0.149518,0.166398 -0.364148,0.26045 -0.21463,0.09164 -0.487137,0.09164 -0.26045,0 -0.467845,-0.07958 -0.204984,-0.08199 -0.349678,-0.238746 -0.142283,-0.156752 -0.219453,-0.388263 -0.07476,-0.231511 -0.07476,-0.532958 0,-0.282154 0.07958,-0.513665 0.07958,-0.233922 0.229099,-0.400321 0.149518,-0.16881 0.364148,-0.260449 0.21463,-0.09405 0.487137,-0.09405 0.26045,0 0.465434,0.08199 0.207395,0.07958 0.349678,0.236334 0.144694,0.15434 0.219453,0.385851 0.07717,0.231511 0.07717,0.530546 z m -0.42926,0.01929 q 0,-0.224276 -0.05064,-0.390675 -0.04823,-0.16881 -0.139871,-0.279742 -0.09164,-0.113344 -0.224276,-0.16881 -0.130225,-0.05788 -0.291801,-0.05788 -0.188102,0 -0.32315,0.07476 -0.132637,0.07235 -0.219453,0.195337 -0.08441,0.12299 -0.125402,0.286977 -0.03858,0.161576 -0.03858,0.340032 0,0.224276 0.04823,0.393086 0.05064,0.16881 0.142283,0.282154 0.09164,0.110932 0.221865,0.16881 0.130225,0.05547 0.294211,0.05547 0.188103,0 0.32074,-0.07235 0.135048,-0.07476 0.219453,-0.197749 0.08682,-0.12299 0.125401,-0.284565 0.041,-0.163987 0.041,-0.344855 z m 1.135852,-1.210609 h 0.383439 l 0.01206,0.44614 q 0.21463,-0.258038 0.422026,-0.373793 0.209806,-0.115756 0.422025,-0.115756 0.376205,0 0.569131,0.243569 0.195337,0.243569 0.180868,0.723472 h -0.424437 q 0.0072,-0.318328 -0.09405,-0.460611 -0.09888,-0.144694 -0.291801,-0.144694 -0.08441,0 -0.171221,0.03135 -0.0844,0.02894 -0.176045,0.09646 -0.08923,0.06511 -0.190514,0.16881 -0.101286,0.103698 -0.217042,0.250804 v 1.555464 h -0.424436 z"
       id="text1"
       aria-label="Key generator" />
  </g>
</svg>
